<svg width="14" height="14" viewBox="0 0 14 14" fill="none" xmlns="http://www.w3.org/2000/svg">
<path d="M8.16667 8.31371V9.53252C7.80173 9.40355 7.40909 9.33337 7 9.33337C5.067 9.33337 3.5 10.9004 3.5 12.8334H2.33333C2.33333 10.256 4.42267 8.16671 7 8.16671C7.40285 8.16671 7.7938 8.21775 8.16667 8.31371ZM7 7.58337C5.06625 7.58337 3.5 6.01712 3.5 4.08337C3.5 2.14962 5.06625 0.583374 7 0.583374C8.93375 0.583374 10.5 2.14962 10.5 4.08337C10.5 6.01712 8.93375 7.58337 7 7.58337ZM7 6.41671C8.28917 6.41671 9.33333 5.37254 9.33333 4.08337C9.33333 2.79421 8.28917 1.75004 7 1.75004C5.71083 1.75004 4.66667 2.79421 4.66667 4.08337C4.66667 5.37254 5.71083 6.41671 7 6.41671ZM10.5 9.91671V8.16671H11.6667V9.91671H13.4167V11.0834H11.6667V12.8334H10.5V11.0834H8.75V9.91671H10.5Z" fill="#1540BD"/>
</svg>
